<?xml version="1.0" standalone="no"?>
<svg viewBox="0 0 200 200" xmlns="http://www.w3.org/2000/svg">
  <path fill="#24A148" d="M31.8,-52.6C38.1,-45.4,37.9,-31.3,38.7,-20.4C39.5,-9.4,41.3,-1.6,42,7.4C42.8,16.4,42.6,26.6,38.2,35C33.9,43.5,25.3,50.3,16.2,51.2C7.1,52,-2.6,47,-14.5,45.3C-26.4,43.7,-40.5,45.5,-54.4,40.8C-68.3,36.1,-82,25,-85.3,11.4C-88.6,-2.1,-81.4,-18,-70.3,-27.9C-59.3,-37.8,-44.2,-41.6,-31.9,-46C-19.5,-50.4,-9.7,-55.4,1.5,-57.7C12.8,-60.1,25.5,-59.8,31.8,-52.6Z" transform="translate(100 100)" />
</svg>
